<?xml version="1.0" standalone="no"?>
<!DOCTYPE svg PUBLIC "-//W3C//DTD SVG 20010904//EN"
 "http://www.w3.org/TR/2001/REC-SVG-20010904/DTD/svg10.dtd">
<svg version="1.0" xmlns="http://www.w3.org/2000/svg"
 width="1024.000000pt" height="1024.000000pt" viewBox="0 0 1024.000000 1024.000000"
 preserveAspectRatio="xMidYMid meet">
<metadata>
Created by potrace 1.16, written by Peter Selinger 2001-2019
</metadata>
<g transform="translate(0.000000,1024.000000) scale(0.100000,-0.100000)"
fill="#000000" stroke="none">
<path d="M3034 9085 c-199 -43 -376 -214 -429 -415 -12 -46 -15 -216 -15
-1079 0 -1129 -3 -1081 63 -1206 46 -88 155 -193 247 -239 139 -68 97 -66
1288 -66 l1072 0 315 -275 c173 -151 373 -328 445 -393 164 -149 198 -167 305
-167 95 1 139 20 202 88 80 87 78 74 81 430 l3 317 257 0 c297 0 355 9 478 70
63 31 96 56 150 112 82 87 118 150 144 254 19 74 20 114 20 1074 0 964 -1 999
-20 1075 -53 206 -209 362 -415 415 -77 20 -111 20 -2104 19 -1641 0 -2038 -3
-2087 -14z m4188 -252 c66 -30 129 -92 164 -160 l29 -58 0 -1025 0 -1025 -21
-45 c-35 -72 -88 -126 -162 -162 l-67 -33 -330 -5 c-356 -5 -360 -6 -412 -62
-50 -54 -53 -74 -53 -418 0 -202 -4 -328 -10 -341 -22 -40 -52 -22 -216 124
-502 446 -741 654 -773 672 -35 20 -60 20 -1166 25 l-1130 5 -57 28 c-73 36
-150 119 -175 189 -17 50 -18 109 -18 1053 l0 1000 28 60 c44 94 119 162 210
191 34 10 423 12 2077 11 l2035 -2 47 -22z"/>
<path d="M3422 8330 c-89 -54 -94 -178 -10 -230 33 -20 46 -20 1713 -20 1608
0 1682 1 1714 18 40 21 71 73 71 117 0 40 -32 90 -72 115 -33 20 -54 20 -1708
20 -1654 0 -1675 0 -1708 -20z"/>
<path d="M3446 7700 c-82 -25 -121 -124 -76 -197 41 -68 -97 -63 1762 -63
1670 0 1683 0 1716 20 36 22 62 72 62 117 0 36 -31 87 -67 110 -26 17 -106 18
-1698 20 -918 1 -1683 -2 -1699 -7z"/>
<path d="M3414 7041 c-65 -40 -82 -144 -32 -198 50 -55 2 -53 1160 -53 1059 0
1072 0 1114 20 70 34 95 120 54 187 -40 67 35 63 -1172 63 -1052 0 -1094 -1
-1124 -19z"/>
<path d="M2220 4790 l0 -140 225 0 225 0 0 -635 0 -635 175 0 175 0 0 635 0
635 220 0 220 0 0 140 0 140 -620 0 -620 0 0 -140z"/>
<path d="M3660 4155 l0 -775 410 0 410 0 0 140 0 141 -242 -1 -243 -1 -3 635
-2 636 -165 0 -165 0 0 -775z"/>
<path d="M5140 4155 l0 -777 383 5 c314 3 393 7 446 21 343 89 533 314 571
674 37 347 -123 653 -405 777 -140 62 -185 68 -607 72 l-388 5 0 -777z m709
480 c177 -42 299 -167 337 -344 52 -247 -46 -485 -240 -580 -86 -41 -146 -51
-316 -51 l-150 0 0 495 0 495 153 0 c100 0 174 -5 216 -15z"/>
<path d="M6748 4155 l2 -775 165 0 165 0 0 290 0 290 109 0 108 0 164 -287
165 -288 181 -3 181 -2 -170 297 c-94 164 -174 303 -179 309 -6 8 12 22 56 43
151 75 245 234 245 416 0 182 -101 345 -263 425 -111 54 -163 60 -567 60
l-365 0 3 -775z m729 491 c164 -69 163 -301 -1 -389 -37 -20 -59 -22 -218 -25
l-178 -4 0 222 0 222 178 -4 c140 -4 186 -8 219 -22z"/>
<path d="M4706 4466 c-89 -33 -143 -131 -118 -215 25 -83 92 -134 177 -134 83
0 149 49 175 128 45 135 -100 270 -234 221z"/>
<path d="M4703 3700 c-63 -38 -80 -117 -42 -192 28 -55 22 -97 -36 -244 -25
-64 -45 -118 -45 -120 0 -2 34 -4 74 -4 l75 0 41 58 c95 131 168 323 155 402
-17 101 -135 154 -222 100z"/>
<path d="M2197 2920 c-172 -43 -270 -201 -224 -361 30 -103 106 -162 265 -208
39 -12 104 -30 142 -41 96 -28 131 -61 137 -126 9 -100 -54 -148 -192 -148
-116 1 -169 35 -197 125 l-11 39 -90 0 -90 0 7 -49 c13 -97 66 -177 150 -226
83 -49 235 -68 348 -44 200 42 316 208 267 383 -27 99 -101 161 -239 202 -217
64 -251 76 -279 100 -40 33 -49 81 -25 131 26 52 71 73 159 73 47 0 82 -6 105
-18 40 -20 80 -74 80 -108 0 -23 2 -24 91 -24 l92 0 -6 56 c-11 106 -91 202
-195 235 -48 15 -246 21 -295 9z"/>
<path d="M4030 2637 c-19 -6 -54 -30 -77 -54 l-43 -42 0 44 0 45 -95 0 -95 0
0 -370 0 -370 94 0 94 0 4 248 c3 264 6 280 58 327 17 15 36 20 82 20 54 0 62
-3 88 -32 37 -41 43 -96 38 -361 l-3 -202 97 0 97 0 3 265 3 265 33 32 c29 30
38 33 91 33 69 0 104 -24 121 -84 5 -20 10 -143 10 -273 l0 -238 96 0 96 0 -5
283 c-5 321 -9 338 -77 409 -51 52 -93 68 -186 68 -73 0 -152 -35 -190 -86
l-26 -34 -22 33 c-34 51 -97 80 -180 83 -39 2 -87 -2 -106 -9z"/>
<path d="M5310 2637 c-19 -6 -54 -30 -77 -54 l-43 -42 0 44 0 45 -95 0 -95 0
0 -370 0 -370 100 0 100 0 0 245 c0 274 5 300 62 335 40 24 98 26 139 4 54
-27 59 -56 59 -334 l0 -250 95 0 95 0 0 245 c0 191 3 253 14 280 38 91 187
101 231 15 12 -24 15 -76 15 -285 l0 -255 96 0 95 0 -3 298 c-3 282 -4 299
-25 337 -45 84 -119 124 -229 125 -85 0 -163 -34 -197 -85 l-21 -33 -38 43
c-60 68 -177 94 -278 62z"/>
<path d="M6452 2632 c-84 -30 -151 -107 -168 -191 l-6 -31 86 0 c72 0 86 3 86
16 0 9 15 31 34 50 31 31 40 34 90 34 96 0 146 -40 146 -117 0 -40 -2 -43 -27
-43 -69 -1 -233 -21 -281 -35 -58 -17 -123 -69 -149 -119 -20 -38 -20 -140 -1
-186 36 -85 122 -134 238 -134 91 -1 140 15 191 61 l39 35 0 -41 0 -41 91 0
91 0 -5 273 c-3 188 -8 284 -18 310 -19 57 -80 121 -141 147 -74 33 -221 38
-296 12z m265 -460 c-10 -117 -60 -165 -164 -160 -71 4 -107 28 -117 78 -18
91 56 135 228 139 l59 1 -6 -58z"/>
<path d="M7372 2633 c-18 -9 -45 -32 -60 -52 -14 -20 -28 -39 -31 -43 -4 -4
-4 15 -3 42 l4 50 -96 0 -96 0 0 -370 0 -370 94 0 95 0 3 228 c3 206 5 230 23
261 35 59 67 76 146 76 l69 0 0 98 0 97 -57 0 c-33 0 -72 -8 -91 -17z"/>
<path d="M2860 2367 c0 -294 6 -334 62 -401 90 -109 300 -117 393 -15 19 21
37 39 40 39 3 0 5 -22 5 -50 l0 -50 85 0 85 0 0 370 0 370 -94 0 -95 0 -3
-247 c-3 -215 -5 -252 -21 -280 -53 -97 -204 -96 -248 1 -16 36 -19 69 -19
284 l0 242 -95 0 -95 0 0 -263z"/>
<path d="M7610 2627 c0 -3 61 -163 135 -357 74 -193 135 -358 135 -366 0 -9
-12 -40 -26 -70 -33 -70 -69 -94 -144 -94 l-55 0 0 -75 c0 -71 1 -76 23 -82
43 -10 147 4 191 27 108 55 126 92 363 750 39 107 76 212 84 233 l13 37 -98 0
-98 0 -7 -27 c-3 -16 -40 -131 -81 -258 -49 -152 -77 -223 -81 -210 -3 11 -40
126 -83 255 l-77 235 -97 3 c-53 1 -97 1 -97 -1z"/>
</g>
</svg>
